<svg width="94" height="94" viewBox="0 0 94 94" fill="none" xmlns="http://www.w3.org/2000/svg">
<circle cx="47" cy="47" r="47" fill="#402340"/>
<circle cx="47" cy="47" r="40" fill="#351A34"/>
<path d="M35.1619 34.296C38.3539 34.296 40.9819 35.076 43.0459 36.636C45.1099 38.196 46.3939 40.308 46.8979 42.972H40.3819C39.9499 42.06 39.2899 41.34 38.4019 40.812C37.5139 40.26 36.4459 39.984 35.1979 39.984C33.2539 39.984 31.6939 40.644 30.5179 41.964C29.3419 43.26 28.7539 45.024 28.7539 47.256C28.7539 49.68 29.3659 51.54 30.5899 52.836C31.8379 54.132 33.6019 54.78 35.8819 54.78C37.3459 54.78 38.6299 54.384 39.7339 53.592C40.8379 52.776 41.6179 51.624 42.0739 50.136H34.2979V45.708H47.2219V51.792C46.7419 53.28 45.9739 54.66 44.9179 55.932C43.8619 57.204 42.5059 58.236 40.8499 59.028C39.2179 59.82 37.3459 60.216 35.2339 60.216C32.6659 60.216 30.4219 59.676 28.5019 58.596C26.5819 57.492 25.0939 55.956 24.0379 53.988C23.0059 52.02 22.4899 49.776 22.4899 47.256C22.4899 44.736 23.0059 42.492 24.0379 40.524C25.0939 38.556 26.5699 37.032 28.4659 35.952C30.3859 34.848 32.6179 34.296 35.1619 34.296ZM65.9318 46.896C67.4678 47.256 68.6798 48 69.5678 49.128C70.4798 50.256 70.9358 51.564 70.9358 53.052C70.9358 55.236 70.2038 56.94 68.7398 58.164C67.2998 59.388 65.2238 60 62.5118 60H50.6678V34.548H62.2238C64.8158 34.548 66.8198 35.112 68.2358 36.24C69.6518 37.368 70.3598 38.976 70.3598 41.064C70.3598 42.6 69.9518 43.884 69.1358 44.916C68.3198 45.924 67.2518 46.584 65.9318 46.896ZM56.8238 44.952H60.8558C62.9918 44.952 64.0598 44.04 64.0598 42.216C64.0598 40.392 62.9678 39.48 60.7838 39.48H56.8238V44.952ZM61.2158 54.996C63.4958 54.996 64.6358 54.06 64.6358 52.188C64.6358 51.276 64.3358 50.568 63.7358 50.064C63.1358 49.536 62.2838 49.272 61.1798 49.272H56.8238V54.996H61.2158Z" fill="white"/>
</svg>
