<?xml version="1.0" encoding="utf-8"?>
<!-- Generator: Adobe Illustrator 24.1.1, SVG Export Plug-In . SVG Version: 6.00 Build 0)  -->
<svg version="1.1" id="Layer_1" xmlns="http://www.w3.org/2000/svg" xmlns:xlink="http://www.w3.org/1999/xlink" x="0px" y="0px"
	 viewBox="0 0 495.9 457.1" style="enable-background:new 0 0 495.9 457.1;" xml:space="preserve">
<style type="text/css">
	.st0{fill-rule:evenodd;clip-rule:evenodd;fill:#C4C4C4;fill-opacity:0.1;}
	.st1{fill:#D94A70;}
	.st2{fill-rule:evenodd;clip-rule:evenodd;fill:url(#SVGID_1_);}
	.st3{fill-rule:evenodd;clip-rule:evenodd;}
	.st4{fill:url(#SVGID_2_);}
	.st5{fill-rule:evenodd;clip-rule:evenodd;fill:#993353;}
	.st6{fill-rule:evenodd;clip-rule:evenodd;fill:#FFFFFF;}
	.st7{fill-rule:evenodd;clip-rule:evenodd;fill:#FCFCFC;}
	.st8{fill-rule:evenodd;clip-rule:evenodd;fill:#D94A70;}
	.st9{fill-rule:evenodd;clip-rule:evenodd;fill:#B28B67;}
	.st10{fill-rule:evenodd;clip-rule:evenodd;fill:#B93155;}
	.st11{fill-rule:evenodd;clip-rule:evenodd;fill:#222126;}
	.st12{fill-rule:evenodd;clip-rule:evenodd;fill:#C5CFD6;}
	.st13{fill-rule:evenodd;clip-rule:evenodd;fill:#D99C2B;}
	.st14{fill-rule:evenodd;clip-rule:evenodd;fill:#6D1631;}
	.st15{fill-rule:evenodd;clip-rule:evenodd;fill:#740A26;}
	.st16{fill-rule:evenodd;clip-rule:evenodd;fill-opacity:0.1;}
</style>
<path class="st0" d="M323.5,13.1C378.9,32.6,432.7,63.8,462,114.6c30.3,52.6,46.8,121,21.7,176.3c-24.2,53.2-94.5,61.4-143.8,92.8
	c-36.6,23.3-65.3,58.1-107.8,67.3c-44.6,9.7-94.5,10-132.7-14.9C62.3,412,53,364.1,35.5,323.4C19,285.1-4,247.9,0.6,206.4
	c4.8-42.8,32.2-78.1,60.5-110.6c30.8-35.4,63.9-69.9,108.6-84C219.8-4,273.9-4.3,323.5,13.1z"/>
<path class="st1" d="M355.2,183.7H347v157.1h8.2V183.7z"/>
<path d="M351.2,183.7H343v157.1h8.2V183.7z"/>
<path class="st1" d="M381.7,183.7h-8.2v157.1h8.2V183.7z"/>
<path d="M377.7,183.7h-8.2v157.1h8.2V183.7z"/>
<path class="st1" d="M181.1,183.7h-8.2v157.1h8.2V183.7z"/>
<path d="M177.1,183.7h-8.2v157.1h8.2V183.7z"/>
<path class="st1" d="M207.6,183.7h-8.2v157.1h8.2V183.7z"/>
<path d="M203.6,183.7h-8.2v157.1h8.2V183.7z"/>
<path d="M397.6,177.1H138.8v15.6h258.8L397.6,177.1L397.6,177.1z"/>
<linearGradient id="SVGID_1_" gradientUnits="userSpaceOnUse" x1="298.4328" y1="815.0028" x2="391.2328" y2="815.0028" gradientTransform="matrix(1 0 0 1 -56 -668)">
	<stop  offset="0" style="stop-color:#D94A70"/>
	<stop  offset="0.4332" style="stop-color:#FFFFFF"/>
</linearGradient>
<path class="st2" d="M254.4,121.1l79.7-5.4l1.3,2.7L325,173.6h-3.7l-78.7,4.7L254.4,121.1z"/>
<path class="st3" d="M251.6,115.7h82.2l-11.9,57.2h-82.2L251.6,115.7z"/>
<linearGradient id="SVGID_2_" gradientUnits="userSpaceOnUse" x1="355.4964" y1="842.9528" x2="378.0452" y2="842.9528" gradientTransform="matrix(1 0 0 1 -56 -668)">
	<stop  offset="0" style="stop-color:#D94A70"/>
	<stop  offset="0.4332" style="stop-color:#FFFFFF"/>
</linearGradient>
<path class="st4" d="M322,172.8h-22.5v4.3H322V172.8z"/>
<path class="st1" d="M299.5,172.8h-75.9v4.3h75.9V172.8z"/>
<path class="st5" d="M254.4,119l-10.6,50.6H319l10.6-50.6H254.4z"/>
<path d="M205.7,328.1H117v4.7h88.7V328.1z"/>
<path class="st3" d="M159.8,340.1c3.6,0,6.5-2.8,6.5-6.3s-2.9-6.3-6.5-6.3s-6.5,2.8-6.5,6.3C153.3,337.3,156.2,340.1,159.8,340.1z"
	/>
<path class="st6" d="M254.4,119h75.2l-0.5,2.3l-75.2,0.1L254.4,119z"/>
<path class="st6" d="M318.6,126.9c0,0.3-0.3,0.6-0.6,0.6h-59.4c-0.4,0-0.6-0.3-0.6-0.6s0.3-0.6,0.6-0.6H318
	C318.3,126.3,318.6,126.5,318.6,126.9z"/>
<path class="st7" d="M306.9,130.4c0,0.3-0.2,0.6-0.5,0.6h-48.7c-0.3,0-0.5-0.3-0.5-0.6s0.2-0.6,0.5-0.6h48.7
	C306.7,129.8,306.9,130.1,306.9,130.4z"/>
<path class="st6" d="M306.2,134.8c0,0.3-0.2,0.6-0.5,0.6H257c-0.3,0-0.5-0.3-0.5-0.6s0.2-0.6,0.5-0.6h48.7
	C306,134.1,306.2,134.4,306.2,134.8z"/>
<path class="st6" d="M316.2,138.6c0,0.3-0.3,0.6-0.6,0.6H256c-0.4,0-0.6-0.3-0.6-0.6s0.3-0.6,0.6-0.6h59.5
	C315.9,137.9,316.2,138.2,316.2,138.6z"/>
<path class="st8" d="M314,147.6c0,0.3-0.3,0.6-0.6,0.6h-59.5c-0.4,0-0.6-0.3-0.6-0.6s0.3-0.6,0.6-0.6h59.5
	C313.7,147,314,147.3,314,147.6z"/>
<path class="st8" d="M292.4,142.9c0,0.3-0.2,0.6-0.4,0.6h-37c-0.2,0-0.4-0.3-0.4-0.6s0.2-0.6,0.4-0.6h37
	C292.3,142.2,292.4,142.5,292.4,142.9z"/>
<path class="st8" d="M280.1,151.6c0,0.3-0.1,0.6-0.3,0.6H253c-0.2,0-0.3-0.3-0.3-0.6s0.1-0.6,0.3-0.6h26.7
	C279.9,151,280.1,151.2,280.1,151.6z"/>
<path class="st8" d="M300.5,156.4c0,0.3-0.2,0.6-0.5,0.6h-47.9c-0.3,0-0.5-0.3-0.5-0.6s0.2-0.6,0.5-0.6H300
	C300.2,155.7,300.5,156,300.5,156.4z"/>
<path class="st9" d="M230.1,183.9c2.2,0.3,6.7-0.4,9.9-2.5s6.2-5.1,6.2-5.1s7,0.7,6.8,0c-0.2-0.6-8.9-4.3-10.2-4.4
	c-1.3-0.1-12.1,1.4-13.2,2.5C228.5,175.4,230.1,183.9,230.1,183.9z"/>
<path class="st9" d="M242.8,175.5c0.7,0.9,5,4.1,4.2,5.4c-0.8,1.3-2.8,1.8-5,0.2s-3.6-3.4-3-4.1
	C239.6,176.4,242.8,175.5,242.8,175.5z"/>
<path class="st10" d="M139.4,123.7c-6.6,2.7-5.1,15.5-2.1,24.7c3,9.1,34,30.8,43.1,33.2c9.2,2.4,45.8-2.3,45.8-2.3
	c2.4-4.9,0.3-10.2-4.1-9c0,0-35.8-1-41-7C177.1,158.4,146.4,120.9,139.4,123.7z"/>
<path class="st9" d="M141.9,93.5c-4.5-5.3-7.6-11.9-7.1-19.2c1.5-21.1,30.8-16.4,36.5-5.8s5,37.6-2.3,39.5
	c-2.9,0.8-9.2-1.1-15.6-4.9l4,28.3h-23.6L141.9,93.5z"/>
<path class="st11" d="M124.5,67.3c-0.8-0.8-1.2-1.8-1.5-2.9c-0.4-1.1-0.7-2.1-1-3.2c-0.5-2.2-0.5-4.8,1.1-6.5c1.3-1.4,3.2-2,4.9-2.1
	c1.2-0.1,2.4,0.1,3.5,0.4c1.1,0.4,2.1,1.1,3.1,1.5c0-2.4,0.5-4.9,1.7-6.9s3-3.1,5.1-3.4c2.2-0.3,4.3,0.2,6.3,1.3
	c0.5,0.3,1,0.5,1.4,0.9c0.4,0.3,0.8,0.6,1.2,0.7c0.5,0.1,0.8-0.2,1.1-0.5c0.4-0.4,0.8-0.8,1.3-1.2c2-1.5,4.7-2.1,7-1.2
	c1.1,0.4,2.1,1.1,2.9,2.1c0.7,0.9,1.1,2.2,2,2.8c0.4,0.3,0.7-0.1,1-0.3c0.5-0.4,1-0.8,1.6-1.2c0.7-0.5,1.6-0.9,2.4-1.1
	c1.3-0.3,3-0.2,3.4,1.4c0.1,0.6,0,1.3,0,1.9c-0.1,0.9-0.1,1.7-0.2,2.6c-0.1,0.7-0.1,1.3-0.3,1.9c-0.1,0.3-0.3,1-0.1,1.3
	c0.2,0.4,1,0.2,1.4,0.2c0.7,0,1.4,0.2,2.1,0.5c0.5,0.2,1,0.6,1.3,1.2c0.1,0.4,0.1,0.7,0,1.1s0,0.7,0.1,1.1c1-0.5,4.3-1.5,4.7,0.2
	c0.1,0.6-0.2,1.2-0.4,1.7c-0.4,0.8-1,1.6-1.5,2.4c-1.2,1.5-2.6,2.9-4.1,4c1.8,0.8,2.3,3.1,0.7,4.5c-0.7,0.6-1.6,0.8-2.5,0.7
	c-0.3,0-0.8-0.1-1-0.1c-0.1,0-0.3,0.1-0.5,0.2c-1.2,0.1-2.6-0.2-3.8-0.5c-2.1-0.5-4.1-1.5-5.8-3c-0.4-0.4-0.8-0.6-1.3-0.6
	s-1,0.1-1.5,0.2c-1.3,0-2.5-0.6-3.7-1c-0.1,1.6-0.5,3.4-1.2,4.9c-0.5,1.2-1.7,1.4-2.8,1.5c-3.6,0.3-7.2,0-10.8,0
	c3.5,0.8,7.1,1.1,10.5,2c1.6,0.4,0.4,1.5-0.3,2.2c-1.1,1.2-1.9,2.7-2.5,4.3c-1.7-2.2-4.7-3.7-7.4-3c-2.9,0.8-5,4.7-3.1,7.6
	c1.1,1.7,3.1,2.3,4.7,3c-1.3,1.3-1.6,3.3-2.4,5c-0.4,0.8-0.9,1.7-1.8,2c-0.3,0.1-0.7,0.1-0.9,0.4c-0.3,0.3-0.4,0.7-0.8,0.9
	c-1.6,1.1-4,1-5.4-0.4c-1.3-1.3-0.9-3.3,0.1-4.6c-1.7-0.7-4.7-1.6-4.1-4.2c-3.6-0.2-12.4-6.1-7.6-10.4c-2.7-1.5-5.1-5.2-3.4-8.4
	C118.9,68.6,122,67.5,124.5,67.3z"/>
<path class="st9" d="M253.8,233.6c8.1-4.9,21.7,1.4,21.7,8.4c0,20.8-19,119.1-20,125.3s-11.6,7.8-12.3,0c-1-12.5-2.8-55.6-1-75.5
	c0.8-8.2,1.6-16.1,2.4-23.1c-10,18-25.4,43.8-46.3,77.4l-11.3-5.2c8.9-29.3,16.2-50.1,21.9-62.1c9.8-20.7,18.9-38.4,22.8-44.7
	C237.7,224.3,248.3,227.7,253.8,233.6z"/>
<path class="st12" d="M91,254.5h76.1l10,122.1H63.8L91,254.5z"/>
<path class="st8" d="M187.8,324.6l38.9-92.2c9.3-15,35.5,3.1,32.3,11.8c-7.2,19.8-43.9,83.7-46.1,89.6L187.8,324.6z"/>
<path class="st13" d="M185.6,335.1c-2.4,2-4,3.6-4.7,4.9c-0.9,1.5-1.9,3.9-3.1,7.2c1.8,1,17.8,10.3,48.1,27.8
	c3.6-3.4,4.2-6.1,1.7-7.9c-2.5-1.9-4.6-3.5-6.2-4.8l-16.6-22.9c-0.3-0.4-0.9-0.5-1.4-0.2l0,0l-3.4,2.7c-3.2-0.3-5.5-0.9-7.1-1.8
	c-1.3-0.7-2.7-2.3-4.4-4.6l0,0c-0.6-0.9-1.9-1.1-2.7-0.5C185.7,335,185.7,335,185.6,335.1z"/>
<path class="st13" d="M240.8,362.3c-1.1,2.9-1.7,5.1-1.7,6.6c0,1.8,0.3,4.4,0.9,7.8c2.1,0,20.6,0,55.5,0c1.4-4.8,0.6-7.3-2.5-7.7
	c-3.1-0.4-5.7-0.7-7.8-1l-25.7-11.6c-0.5-0.2-1.1,0-1.3,0.5l0,0l-1.7,4c-2.9,1.3-5.2,2-7,2c-1.5,0-3.5-0.6-6.1-1.8l0,0
	c-1-0.5-2.2,0-2.6,1C240.8,362.2,240.8,362.2,240.8,362.3z"/>
<path class="st14" d="M278.3,249.1c0,26.2-12.4,87.2-12.4,92.9h-26.7c3.9-54.5,5.3-82,4.2-82.6c-1.7-0.9-70,6.8-90.4,6.8
	c-29.5,0-41.7-18.6-42.7-53.1h58.5c11.9,1.3,74,13.8,97.1,18.1C275.5,233.1,278.3,241.9,278.3,249.1z"/>
<path class="st11" d="M185.6,213.7l-11.2-51c-0.3-1-0.6-2.1-1-3.1c-5.2-17.1-10.5-34.1-11.7-49.8h-27.3c-3,0-23.4,39-23.4,64.4
	c0,8.7-3.1,16.2-6.3,24.1c-5.3,13.1-11.1,27.3-4.2,49.9c6.2-1.2,16.7,0.1,28,1.6c21.3,2.8,45.8,6,51.7-6.6
	C184.8,234.2,186.1,224.2,185.6,213.7z"/>
<path class="st9" d="M230.3,189.5c2.7,0.3,8.3-0.5,12.2-2.8c3.9-2.4,7.1-4.6,7.1-4.6s8.6,1,9.1-0.8c0.2-2.4-11.1-5.3-12.7-5.5
	c-1.6-0.2-15,1.6-16.3,2.8C228.4,179.8,230.3,189.5,230.3,189.5z"/>
<path class="st15" d="M147.2,138.5c-6.6,2.7-5,15.5-2,24.6c3,9.2,33.9,30.8,43.1,33.2c9.2,2.4,44.7-8.7,44.7-8.7
	c2.4-4.9,0.3-10.2-4.1-9c0,0-34.7,5.4-39.8-0.6C184.9,173.2,154.2,135.7,147.2,138.5z"/>
<path class="st16" d="M91,254.5h23.4l14,122.1H63.8L91,254.5z"/>
</svg>
